<svg width="56" height="17" viewBox="0 0 56 17" fill="none" xmlns="http://www.w3.org/2000/svg">
<path d="M4.984 11.06C4.312 11.06 3.804 10.876 3.46 10.508C3.116 10.132 2.944 9.632 2.944 9.008C2.944 8.656 2.996 8.228 3.1 7.724L3.844 4.292C3.86 4.228 3.896 4.052 3.952 3.764C4.016 3.476 4.048 3.164 4.048 2.828C4.048 2.636 4.008 2.492 3.928 2.396C3.856 2.3 3.756 2.252 3.628 2.252C3.388 2.252 3.108 2.368 2.788 2.6C2.468 2.824 2.132 3.172 1.78 3.644C1.668 3.796 1.544 3.872 1.408 3.872C1.296 3.872 1.196 3.82 1.108 3.716C1.028 3.604 0.988 3.48 0.988 3.344C0.988 3.096 1.1 2.816 1.324 2.504C2.14 1.384 3.096 0.823999 4.192 0.823999C4.68 0.823999 5.06 0.971999 5.332 1.268C5.612 1.564 5.752 2 5.752 2.576C5.752 2.984 5.724 3.36 5.668 3.704C5.612 4.048 5.516 4.516 5.38 5.108L4.888 7.304C4.872 7.376 4.844 7.504 4.804 7.688C4.764 7.872 4.732 8.048 4.708 8.216C4.684 8.376 4.672 8.536 4.672 8.696C4.672 8.952 4.744 9.156 4.888 9.308C5.032 9.46 5.236 9.536 5.5 9.536C5.98 9.536 6.464 9.28 6.952 8.768C7.448 8.256 7.904 7.432 8.32 6.296C8.744 5.152 9.072 3.692 9.304 1.916C9.36 1.508 9.44 1.224 9.544 1.064C9.656 0.903999 9.868 0.823999 10.18 0.823999C10.46 0.823999 10.668 0.908 10.804 1.076C10.94 1.244 11.008 1.516 11.008 1.892C11.008 2.108 10.98 2.392 10.924 2.744C10.876 3.096 10.8 3.588 10.696 4.22C10.48 5.444 10.308 6.568 10.18 7.592C10.116 8.056 10.084 8.4 10.084 8.624C10.084 8.952 10.156 9.204 10.3 9.38C10.452 9.548 10.652 9.632 10.9 9.632C11.164 9.632 11.42 9.544 11.668 9.368C11.924 9.192 12.224 8.9 12.568 8.492C12.664 8.38 12.772 8.324 12.892 8.324C12.996 8.324 13.076 8.372 13.132 8.468C13.196 8.564 13.228 8.696 13.228 8.864C13.228 9.176 13.152 9.424 13 9.608C12.584 10.112 12.172 10.48 11.764 10.712C11.356 10.944 10.928 11.06 10.48 11.06C9.816 11.06 9.308 10.892 8.956 10.556C8.604 10.212 8.428 9.768 8.428 9.224C8.428 8.92 8.492 8.328 8.62 7.448C8.22 8.624 7.712 9.52 7.096 10.136C6.488 10.752 5.784 11.06 4.984 11.06ZM17.1118 11.06C16.1598 11.06 15.3318 10.888 14.6278 10.544C13.9238 10.192 13.3838 9.696 13.0078 9.056C12.6318 8.416 12.4438 7.672 12.4438 6.824C12.4438 5.648 12.6638 4.604 13.1038 3.692C13.5518 2.78 14.1558 2.076 14.9158 1.58C15.6758 1.076 16.5198 0.823999 17.4478 0.823999C18.3118 0.823999 18.9678 1.048 19.4158 1.496C19.8638 1.936 20.0878 2.52 20.0878 3.248C20.0878 3.736 19.9998 4.128 19.8238 4.424C19.6558 4.72 19.4118 4.868 19.0918 4.868C18.8678 4.868 18.6918 4.816 18.5638 4.712C18.4358 4.608 18.3718 4.456 18.3718 4.256C18.3718 4.184 18.3878 4.052 18.4198 3.86C18.4678 3.62 18.4918 3.428 18.4918 3.284C18.4918 2.556 18.1038 2.192 17.3278 2.192C16.7998 2.192 16.2958 2.364 15.8158 2.708C15.3358 3.052 14.9478 3.56 14.6518 4.232C14.3558 4.896 14.2078 5.688 14.2078 6.608C14.2078 7.568 14.4758 8.312 15.0118 8.84C15.5478 9.36 16.3398 9.62 17.3878 9.62C17.9078 9.62 18.4318 9.556 18.9598 9.428C19.4958 9.292 20.0878 9.088 20.7358 8.816C20.8558 8.768 20.9558 8.744 21.0358 8.744C21.1638 8.744 21.2598 8.792 21.3238 8.888C21.3878 8.984 21.4198 9.108 21.4198 9.26C21.4198 9.748 21.1558 10.108 20.6278 10.34C20.0598 10.588 19.4678 10.772 18.8518 10.892C18.2438 11.004 17.6638 11.06 17.1118 11.06ZM23.8863 11.06C23.2143 11.06 22.7063 10.876 22.3623 10.508C22.0183 10.132 21.8463 9.632 21.8463 9.008C21.8463 8.656 21.8983 8.228 22.0023 7.724L22.7463 4.292C22.7623 4.228 22.7983 4.052 22.8543 3.764C22.9183 3.476 22.9503 3.164 22.9503 2.828C22.9503 2.636 22.9103 2.492 22.8303 2.396C22.7583 2.3 22.6583 2.252 22.5303 2.252C22.2903 2.252 22.0103 2.368 21.6903 2.6C21.3703 2.824 21.0343 3.172 20.6823 3.644C20.5703 3.796 20.4463 3.872 20.3103 3.872C20.1983 3.872 20.0983 3.82 20.0103 3.716C19.9303 3.604 19.8903 3.48 19.8903 3.344C19.8903 3.096 20.0023 2.816 20.2263 2.504C21.0423 1.384 21.9983 0.823999 23.0943 0.823999C23.5823 0.823999 23.9623 0.971999 24.2343 1.268C24.5143 1.564 24.6543 2 24.6543 2.576C24.6543 2.984 24.6263 3.36 24.5703 3.704C24.5143 4.048 24.4183 4.516 24.2823 5.108L23.7903 7.304C23.7743 7.376 23.7463 7.504 23.7063 7.688C23.6663 7.872 23.6343 8.048 23.6103 8.216C23.5863 8.376 23.5743 8.536 23.5743 8.696C23.5743 8.952 23.6463 9.156 23.7903 9.308C23.9343 9.46 24.1383 9.536 24.4023 9.536C24.8823 9.536 25.3663 9.28 25.8543 8.768C26.3503 8.256 26.8063 7.432 27.2223 6.296C27.6463 5.152 27.9743 3.692 28.2063 1.916C28.2623 1.508 28.3423 1.224 28.4463 1.064C28.5583 0.903999 28.7703 0.823999 29.0823 0.823999C29.3623 0.823999 29.5703 0.908 29.7063 1.076C29.8423 1.244 29.9103 1.516 29.9103 1.892C29.9103 2.108 29.8823 2.392 29.8263 2.744C29.7783 3.096 29.7023 3.588 29.5983 4.22C29.3823 5.444 29.2103 6.568 29.0823 7.592C29.0183 8.056 28.9863 8.4 28.9863 8.624C28.9863 8.952 29.0583 9.204 29.2023 9.38C29.3543 9.548 29.5543 9.632 29.8023 9.632C30.0663 9.632 30.3223 9.544 30.5703 9.368C30.8263 9.192 31.1263 8.9 31.4703 8.492C31.5663 8.38 31.6743 8.324 31.7943 8.324C31.8983 8.324 31.9783 8.372 32.0343 8.468C32.0983 8.564 32.1303 8.696 32.1303 8.864C32.1303 9.176 32.0543 9.424 31.9023 9.608C31.4863 10.112 31.0743 10.48 30.6663 10.712C30.2583 10.944 29.8303 11.06 29.3823 11.06C28.7183 11.06 28.2103 10.892 27.8583 10.556C27.5063 10.212 27.3303 9.768 27.3303 9.224C27.3303 8.92 27.3943 8.328 27.5223 7.448C27.1223 8.624 26.6143 9.52 25.9983 10.136C25.3903 10.752 24.6863 11.06 23.8863 11.06ZM37.2981 8.348C37.4021 8.348 37.4821 8.4 37.5381 8.504C37.6021 8.6 37.6341 8.724 37.6341 8.876C37.6341 9.06 37.6061 9.204 37.5501 9.308C37.4941 9.412 37.4061 9.504 37.2861 9.584C36.5981 10.048 36.0941 10.392 35.7741 10.616L35.0061 11.132C34.7021 12.788 34.3021 14.088 33.8061 15.032C33.3181 15.984 32.6941 16.46 31.9341 16.46C31.5261 16.46 31.1941 16.332 30.9381 16.076C30.6821 15.828 30.5541 15.5 30.5541 15.092C30.5541 14.524 30.7781 13.912 31.2261 13.256C31.6741 12.608 32.5141 11.808 33.7461 10.856L33.8181 10.388C33.6821 10.604 33.5021 10.772 33.2781 10.892C33.0621 11.004 32.8461 11.06 32.6301 11.06C32.1341 11.06 31.7381 10.88 31.4421 10.52C31.1461 10.16 30.9981 9.688 30.9981 9.104C30.9981 8.464 31.1461 7.86 31.4421 7.292C31.7381 6.716 32.1301 6.256 32.6181 5.912C33.1141 5.56 33.6381 5.384 34.1901 5.384C34.3661 5.384 34.4821 5.42 34.5381 5.492C34.6021 5.556 34.6541 5.676 34.6941 5.852C34.8461 5.82 35.0221 5.804 35.2221 5.804C35.4221 5.804 35.5621 5.836 35.6421 5.9C35.7301 5.956 35.7741 6.072 35.7741 6.248C35.7741 6.344 35.7701 6.42 35.7621 6.476C35.7301 6.724 35.6301 7.352 35.4621 8.36C35.4301 8.552 35.3941 8.764 35.3541 8.996C35.3221 9.22 35.2861 9.46 35.2461 9.716C35.8621 9.236 36.4541 8.812 37.0221 8.444C37.1261 8.38 37.2181 8.348 37.2981 8.348ZM33.0621 9.848C33.2461 9.848 33.4221 9.736 33.5901 9.512C33.7581 9.288 33.8781 8.968 33.9501 8.552L34.3341 6.5C34.0061 6.508 33.7021 6.636 33.4221 6.884C33.1421 7.124 32.9181 7.444 32.7501 7.844C32.5821 8.244 32.4981 8.668 32.4981 9.116C32.4981 9.364 32.5461 9.548 32.6421 9.668C32.7461 9.788 32.8861 9.848 33.0621 9.848ZM32.0661 15.296C32.2661 15.296 32.4901 15.056 32.7381 14.576C32.9941 14.096 33.2381 13.332 33.4701 12.284C32.8541 12.812 32.4101 13.288 32.1381 13.712C31.8661 14.136 31.7301 14.508 31.7301 14.828C31.7301 14.964 31.7541 15.076 31.8021 15.164C31.8581 15.252 31.9461 15.296 32.0661 15.296ZM37.6194 11.06C37.3154 11.06 37.0994 10.9 36.9714 10.58C36.8514 10.26 36.7914 9.748 36.7914 9.044C36.7914 8.004 36.9394 7.016 37.2354 6.08C37.3074 5.848 37.4234 5.68 37.5834 5.576C37.7514 5.464 37.9834 5.408 38.2794 5.408C38.4394 5.408 38.5514 5.428 38.6154 5.468C38.6794 5.508 38.7114 5.584 38.7114 5.696C38.7114 5.824 38.6514 6.112 38.5314 6.56C38.4514 6.88 38.3874 7.16 38.3394 7.4C38.2914 7.64 38.2514 7.936 38.2194 8.288C38.4834 7.6 38.7794 7.04 39.1074 6.608C39.4354 6.176 39.7554 5.868 40.0674 5.684C40.3874 5.5 40.6794 5.408 40.9434 5.408C41.4634 5.408 41.7234 5.668 41.7234 6.188C41.7234 6.292 41.6874 6.544 41.6154 6.944C41.5514 7.264 41.5194 7.464 41.5194 7.544C41.5194 7.824 41.6194 7.964 41.8194 7.964C42.0434 7.964 42.3314 7.788 42.6834 7.436C42.7874 7.332 42.8954 7.28 43.0074 7.28C43.1114 7.28 43.1914 7.328 43.2474 7.424C43.3114 7.512 43.3434 7.632 43.3434 7.784C43.3434 8.08 43.2634 8.312 43.1034 8.48C42.8794 8.712 42.6154 8.912 42.3114 9.08C42.0154 9.24 41.6994 9.32 41.3634 9.32C40.9394 9.32 40.6154 9.212 40.3914 8.996C40.1754 8.78 40.0674 8.488 40.0674 8.12C40.0674 8 40.0794 7.88 40.1034 7.76C40.1194 7.6 40.1274 7.492 40.1274 7.436C40.1274 7.308 40.0834 7.244 39.9954 7.244C39.8754 7.244 39.7154 7.38 39.5154 7.652C39.3234 7.916 39.1314 8.268 38.9394 8.708C38.7474 9.148 38.5914 9.612 38.4714 10.1C38.3834 10.476 38.2794 10.732 38.1594 10.868C38.0474 10.996 37.8674 11.06 37.6194 11.06ZM43.7043 11.06C43.2083 11.06 42.8123 10.88 42.5163 10.52C42.2203 10.16 42.0723 9.688 42.0723 9.104C42.0723 8.464 42.2203 7.86 42.5163 7.292C42.8123 6.716 43.2043 6.256 43.6923 5.912C44.1883 5.56 44.7123 5.384 45.2643 5.384C45.4403 5.384 45.5563 5.42 45.6123 5.492C45.6763 5.556 45.7283 5.676 45.7683 5.852C45.9363 5.82 46.1123 5.804 46.2963 5.804C46.6883 5.804 46.8843 5.944 46.8843 6.224C46.8843 6.392 46.8243 6.792 46.7043 7.424C46.5203 8.344 46.4283 8.984 46.4283 9.344C46.4283 9.464 46.4563 9.56 46.5123 9.632C46.5763 9.704 46.6563 9.74 46.7523 9.74C46.9043 9.74 47.0883 9.644 47.3043 9.452C47.5203 9.252 47.8123 8.932 48.1803 8.492C48.2763 8.38 48.3843 8.324 48.5043 8.324C48.6083 8.324 48.6883 8.372 48.7443 8.468C48.8083 8.564 48.8403 8.696 48.8403 8.864C48.8403 9.184 48.7643 9.432 48.6123 9.608C48.2843 10.016 47.9363 10.36 47.5683 10.64C47.2003 10.92 46.8443 11.06 46.5003 11.06C46.2363 11.06 45.9923 10.972 45.7683 10.796C45.5523 10.612 45.3883 10.364 45.2763 10.052C44.8603 10.724 44.3363 11.06 43.7043 11.06ZM44.1363 9.848C44.3123 9.848 44.4803 9.744 44.6403 9.536C44.8003 9.328 44.9163 9.052 44.9883 8.708L45.4323 6.5C45.0963 6.508 44.7843 6.636 44.4963 6.884C44.2163 7.124 43.9923 7.444 43.8243 7.844C43.6563 8.244 43.5723 8.668 43.5723 9.116C43.5723 9.364 43.6203 9.548 43.7163 9.668C43.8203 9.788 43.9603 9.848 44.1363 9.848ZM48.7171 11.06C48.4131 11.06 48.1971 10.9 48.0691 10.58C47.9491 10.26 47.8891 9.748 47.8891 9.044C47.8891 8.004 48.0371 7.016 48.3331 6.08C48.4051 5.848 48.5211 5.68 48.6811 5.576C48.8491 5.464 49.0811 5.408 49.3771 5.408C49.5371 5.408 49.6491 5.428 49.7131 5.468C49.7771 5.508 49.8091 5.584 49.8091 5.696C49.8091 5.824 49.7491 6.112 49.6291 6.56C49.5491 6.88 49.4851 7.16 49.4371 7.4C49.3891 7.632 49.3491 7.924 49.3171 8.276C49.5331 7.652 49.7891 7.124 50.0851 6.692C50.3891 6.26 50.6971 5.94 51.0091 5.732C51.3291 5.516 51.6291 5.408 51.9091 5.408C52.1891 5.408 52.3851 5.472 52.4971 5.6C52.6171 5.728 52.6771 5.924 52.6771 6.188C52.6771 6.444 52.6011 6.908 52.4491 7.58C52.3851 7.868 52.3411 8.084 52.3171 8.228C52.5811 7.556 52.8731 7.008 53.1931 6.584C53.5211 6.16 53.8411 5.86 54.1531 5.684C54.4651 5.5 54.7531 5.408 55.0171 5.408C55.2731 5.408 55.4651 5.476 55.5931 5.612C55.7291 5.74 55.7971 5.932 55.7971 6.188C55.7971 6.396 55.7531 6.788 55.6651 7.364C55.5851 7.852 55.5211 8.316 55.4731 8.756C55.4251 9.188 55.4011 9.672 55.4011 10.208C55.4011 10.512 55.3371 10.732 55.2091 10.868C55.0891 10.996 54.8891 11.06 54.6091 11.06C54.3451 11.06 54.1531 10.992 54.0331 10.856C53.9131 10.72 53.8531 10.516 53.8531 10.244C53.8531 9.924 53.9091 9.396 54.0211 8.66C54.1171 8.02 54.1651 7.612 54.1651 7.436C54.1651 7.308 54.1211 7.244 54.0331 7.244C53.9291 7.244 53.7811 7.38 53.5891 7.652C53.3971 7.916 53.2051 8.268 53.0131 8.708C52.8211 9.148 52.6651 9.612 52.5451 10.1C52.4571 10.484 52.3531 10.74 52.2331 10.868C52.1211 10.996 51.9371 11.06 51.6811 11.06C51.4171 11.06 51.2171 10.936 51.0811 10.688C50.9531 10.432 50.8891 10.124 50.8891 9.764C50.8891 9.46 50.9291 9.02 51.0091 8.444C51.0731 7.932 51.1051 7.596 51.1051 7.436C51.1051 7.308 51.0611 7.244 50.9731 7.244C50.8531 7.244 50.7011 7.388 50.5171 7.676C50.3331 7.964 50.1531 8.332 49.9771 8.78C49.8091 9.228 49.6731 9.668 49.5691 10.1C49.4811 10.476 49.3771 10.732 49.2571 10.868C49.1451 10.996 48.9651 11.06 48.7171 11.06Z" fill="black"/>
</svg>
