<svg width="54" height="12" viewBox="0 0 54 12" fill="none" xmlns="http://www.w3.org/2000/svg">
<path d="M7.05078 0.433594V5.97656C7.05078 6.56641 6.91992 7.09961 6.6582 7.57617C6.40039 8.04883 6.00781 8.42383 5.48047 8.70117C4.95703 8.97852 4.29688 9.11719 3.5 9.11719C2.36719 9.11719 1.50391 8.82812 0.910156 8.25C0.316406 7.67188 0.0195312 6.90625 0.0195312 5.95312V0.433594H1.83008V5.67773C1.83008 6.38477 1.97461 6.88086 2.26367 7.16602C2.55273 7.45117 2.98047 7.59375 3.54688 7.59375C3.94531 7.59375 4.26758 7.52539 4.51367 7.38867C4.76367 7.25195 4.94727 7.04102 5.06445 6.75586C5.18164 6.4707 5.24023 6.10742 5.24023 5.66602V0.433594H7.05078ZM12.7871 1.82227C12.4395 1.82227 12.1309 1.89062 11.8613 2.02734C11.5957 2.16016 11.3711 2.35352 11.1875 2.60742C11.0078 2.86133 10.8711 3.16797 10.7773 3.52734C10.6836 3.88672 10.6367 4.29102 10.6367 4.74023C10.6367 5.3457 10.7109 5.86328 10.8594 6.29297C11.0117 6.71875 11.2461 7.04492 11.5625 7.27148C11.8789 7.49414 12.2871 7.60547 12.7871 7.60547C13.1348 7.60547 13.4824 7.56641 13.8301 7.48828C14.1816 7.41016 14.5625 7.29883 14.9727 7.1543V8.67773C14.5938 8.83398 14.2207 8.94531 13.8535 9.01172C13.4863 9.08203 13.0742 9.11719 12.6172 9.11719C11.7344 9.11719 11.0078 8.93555 10.4375 8.57227C9.87109 8.20508 9.45117 7.69336 9.17773 7.03711C8.9043 6.37695 8.76758 5.60742 8.76758 4.72852C8.76758 4.08008 8.85547 3.48633 9.03125 2.94727C9.20703 2.4082 9.46484 1.94141 9.80469 1.54688C10.1445 1.15234 10.5645 0.847656 11.0645 0.632812C11.5645 0.417969 12.1387 0.310547 12.7871 0.310547C13.2129 0.310547 13.6387 0.365234 14.0645 0.474609C14.4941 0.580078 14.9043 0.726562 15.2949 0.914062L14.709 2.39062C14.3887 2.23828 14.0664 2.10547 13.7422 1.99219C13.418 1.87891 13.0996 1.82227 12.7871 1.82227ZM23.7734 0.433594V5.97656C23.7734 6.56641 23.6426 7.09961 23.3809 7.57617C23.123 8.04883 22.7305 8.42383 22.2031 8.70117C21.6797 8.97852 21.0195 9.11719 20.2227 9.11719C19.0898 9.11719 18.2266 8.82812 17.6328 8.25C17.0391 7.67188 16.7422 6.90625 16.7422 5.95312V0.433594H18.5527V5.67773C18.5527 6.38477 18.6973 6.88086 18.9863 7.16602C19.2754 7.45117 19.7031 7.59375 20.2695 7.59375C20.668 7.59375 20.9902 7.52539 21.2363 7.38867C21.4863 7.25195 21.6699 7.04102 21.7871 6.75586C21.9043 6.4707 21.9629 6.10742 21.9629 5.66602V0.433594H23.7734ZM27.6113 11.8828C26.7676 11.8828 26.1172 11.7246 25.6602 11.4082C25.2031 11.0957 24.9746 10.6562 24.9746 10.0898C24.9746 9.6875 25.1016 9.34375 25.3555 9.05859C25.6133 8.77344 25.9688 8.58398 26.4219 8.49023C26.2539 8.41211 26.1094 8.29492 25.9883 8.13867C25.8711 7.98242 25.8125 7.80273 25.8125 7.59961C25.8125 7.36523 25.877 7.16016 26.0059 6.98438C26.1387 6.80469 26.3398 6.63281 26.6094 6.46875C26.2734 6.33203 26 6.10156 25.7891 5.77734C25.582 5.44922 25.4785 5.06836 25.4785 4.63477C25.4785 4.17383 25.5742 3.78125 25.7656 3.45703C25.957 3.12891 26.2344 2.87891 26.5977 2.70703C26.9609 2.53516 27.4004 2.44922 27.916 2.44922C28.0293 2.44922 28.1426 2.45508 28.2559 2.4668C28.373 2.47461 28.4844 2.48828 28.5898 2.50781C28.6953 2.52344 28.7871 2.54297 28.8652 2.56641H31.0684V3.19336L29.8848 3.33984C30.002 3.49219 30.0996 3.67578 30.1777 3.89062C30.2559 4.10547 30.2949 4.34375 30.2949 4.60547C30.2949 5.24609 30.0781 5.75586 29.6445 6.13477C29.2109 6.50977 28.6152 6.69727 27.8574 6.69727C27.6777 6.69727 27.4941 6.68164 27.3066 6.65039C27.1152 6.75586 26.9688 6.87305 26.8672 7.00195C26.7695 7.13086 26.7207 7.2793 26.7207 7.44727C26.7207 7.57227 26.7578 7.67188 26.832 7.74609C26.9102 7.82031 27.0215 7.875 27.166 7.91016C27.3105 7.94141 27.4844 7.95703 27.6875 7.95703H28.8184C29.5176 7.95703 30.0527 8.10352 30.4238 8.39648C30.7988 8.68945 30.9863 9.11719 30.9863 9.67969C30.9863 10.3906 30.6973 10.9355 30.1191 11.3145C29.541 11.6934 28.7051 11.8828 27.6113 11.8828ZM27.6406 11.1211C28.1719 11.1211 28.6113 11.0664 28.959 10.957C29.3105 10.8516 29.5723 10.6973 29.7441 10.4941C29.9199 10.2949 30.0078 10.0566 30.0078 9.7793C30.0078 9.52148 29.9492 9.32617 29.832 9.19336C29.7148 9.06445 29.543 8.97852 29.3164 8.93555C29.0898 8.88867 28.8125 8.86523 28.4844 8.86523H27.3711C27.082 8.86523 26.8301 8.91016 26.6152 9C26.4004 9.08984 26.2344 9.22266 26.1172 9.39844C26.0039 9.57422 25.9473 9.79297 25.9473 10.0547C25.9473 10.4023 26.0938 10.666 26.3867 10.8457C26.6797 11.0293 27.0977 11.1211 27.6406 11.1211ZM27.8926 5.98828C28.3574 5.98828 28.707 5.87109 28.9414 5.63672C29.1758 5.40234 29.293 5.06055 29.293 4.61133C29.293 4.13086 29.1738 3.77148 28.9355 3.5332C28.6973 3.29102 28.3457 3.16992 27.8809 3.16992C27.4355 3.16992 27.0918 3.29492 26.8496 3.54492C26.6113 3.79102 26.4922 4.15234 26.4922 4.62891C26.4922 5.06641 26.6133 5.40234 26.8555 5.63672C27.0977 5.87109 27.4434 5.98828 27.8926 5.98828ZM35.252 2.46094C35.3809 2.46094 35.5156 2.46875 35.6562 2.48438C35.7969 2.49609 35.9219 2.51367 36.0312 2.53711L35.9082 3.43945C35.8027 3.41211 35.6855 3.39062 35.5566 3.375C35.4277 3.35938 35.3066 3.35156 35.1934 3.35156C34.9355 3.35156 34.6914 3.4043 34.4609 3.50977C34.2344 3.61133 34.0352 3.75977 33.8633 3.95508C33.6914 4.14648 33.5566 4.37891 33.459 4.65234C33.3613 4.92188 33.3125 5.22266 33.3125 5.55469V9H32.334V2.57812H33.1426L33.248 3.76172H33.2891C33.4219 3.52344 33.582 3.30664 33.7695 3.11133C33.957 2.91211 34.1738 2.75391 34.4199 2.63672C34.6699 2.51953 34.9473 2.46094 35.252 2.46094ZM39.6465 2.47266C40.4121 2.47266 40.9805 2.64453 41.3516 2.98828C41.7227 3.33203 41.9082 3.88086 41.9082 4.63477V9H41.1992L41.0117 8.05078H40.9648C40.7852 8.28516 40.5977 8.48242 40.4023 8.64258C40.207 8.79883 39.9805 8.91797 39.7227 9C39.4688 9.07812 39.1562 9.11719 38.7852 9.11719C38.3945 9.11719 38.0469 9.04883 37.7422 8.91211C37.4414 8.77539 37.2031 8.56836 37.0273 8.29102C36.8555 8.01367 36.7695 7.66211 36.7695 7.23633C36.7695 6.5957 37.0234 6.10352 37.5312 5.75977C38.0391 5.41602 38.8125 5.22852 39.8516 5.19727L40.959 5.15039V4.75781C40.959 4.20312 40.8398 3.81445 40.6016 3.5918C40.3633 3.36914 40.0273 3.25781 39.5938 3.25781C39.2578 3.25781 38.9375 3.30664 38.6328 3.4043C38.3281 3.50195 38.0391 3.61719 37.7656 3.75L37.4668 3.01172C37.7559 2.86328 38.0879 2.73633 38.4629 2.63086C38.8379 2.52539 39.2324 2.47266 39.6465 2.47266ZM40.9473 5.83594L39.9688 5.87695C39.168 5.9082 38.6035 6.03906 38.2754 6.26953C37.9473 6.5 37.7832 6.82617 37.7832 7.24805C37.7832 7.61523 37.8945 7.88672 38.1172 8.0625C38.3398 8.23828 38.6348 8.32617 39.002 8.32617C39.5723 8.32617 40.0391 8.16797 40.4023 7.85156C40.7656 7.53516 40.9473 7.06055 40.9473 6.42773V5.83594ZM50.8848 2.46094C51.5918 2.46094 52.125 2.64648 52.4844 3.01758C52.8438 3.38477 53.0234 3.97656 53.0234 4.79297V9H52.0625V4.83984C52.0625 4.32031 51.9492 3.93164 51.7227 3.67383C51.5 3.41211 51.168 3.28125 50.7266 3.28125C50.1055 3.28125 49.6543 3.46094 49.373 3.82031C49.0918 4.17969 48.9512 4.70898 48.9512 5.4082V9H47.9844V4.83984C47.9844 4.49219 47.9336 4.20312 47.832 3.97266C47.7344 3.74219 47.5859 3.57031 47.3867 3.45703C47.1914 3.33984 46.9434 3.28125 46.6426 3.28125C46.2168 3.28125 45.875 3.36914 45.6172 3.54492C45.3594 3.7207 45.1719 3.98242 45.0547 4.33008C44.9414 4.67383 44.8848 5.09766 44.8848 5.60156V9H43.9121V2.57812H44.6973L44.8438 3.48633H44.8965C45.0254 3.26367 45.1875 3.07617 45.3828 2.92383C45.5781 2.77148 45.7969 2.65625 46.0391 2.57812C46.2812 2.5 46.5391 2.46094 46.8125 2.46094C47.3008 2.46094 47.709 2.55273 48.0371 2.73633C48.3691 2.91602 48.6094 3.19141 48.7578 3.5625H48.8105C49.0215 3.19141 49.3105 2.91602 49.6777 2.73633C50.0449 2.55273 50.4473 2.46094 50.8848 2.46094Z" fill="black"/>
</svg>
